<svg width="65" height="65" viewBox="0 0 65 65" fill="none" xmlns="http://www.w3.org/2000/svg">
<path d="M32.5 53.2826C43.9779 53.2826 53.2826 43.9779 53.2826 32.5C53.2826 21.0221 43.9779 11.7174 32.5 11.7174C21.022 11.7174 11.7173 21.0221 11.7173 32.5C11.7173 43.9779 21.022 53.2826 32.5 53.2826Z" fill="url(#paint0_linear_102_352)" stroke="url(#paint1_linear_102_352)" stroke-width="2"/>
<path fill-rule="evenodd" clip-rule="evenodd" d="M32.5 0C31.5245 0 30.7337 0.790802 30.7337 1.7663V7.41848C30.7337 8.39398 31.5245 9.18478 32.5 9.18478C33.4755 9.18478 34.2663 8.39398 34.2663 7.41848V1.7663C34.2663 0.790801 33.4755 0 32.5 0ZM32.5 55.8152C31.5245 55.8152 30.7337 56.606 30.7337 57.5815V63.2337C30.7337 64.2092 31.5245 65 32.5 65C33.4755 65 34.2663 64.2092 34.2663 63.2337V57.5815C34.2663 56.606 33.4755 55.8152 32.5 55.8152ZM46.3372 5.00067C46.8249 4.15586 47.9052 3.86641 48.75 4.35416C49.5948 4.84191 49.8842 5.92217 49.3965 6.76698L46.5704 11.6619C46.0827 12.5067 45.0024 12.7962 44.1576 12.3084C43.3128 11.8207 43.0233 10.7404 43.5111 9.8956L46.3372 5.00067ZM20.8424 52.6916C19.9976 52.2038 18.9173 52.4933 18.4296 53.3381L15.6035 58.233C15.1157 59.0778 15.4052 60.1581 16.25 60.6458C17.0948 61.1336 18.175 60.8441 18.6628 59.9993L21.4889 55.1044C21.9766 54.2596 21.6872 53.1793 20.8424 52.6916ZM58.233 15.6035C59.0778 15.1157 60.1581 15.4052 60.6458 16.25C61.1336 17.0948 60.8441 18.1751 59.9993 18.6628L55.1044 21.4889C54.2596 21.9766 53.1793 21.6872 52.6916 20.8424C52.2038 19.9976 52.4933 18.9173 53.3381 18.4296L58.233 15.6035ZM12.3084 44.1576C11.8207 43.3128 10.7404 43.0233 9.89561 43.5111L5.00068 46.3372C4.15587 46.8249 3.86642 47.9052 4.35417 48.75C4.84192 49.5948 5.92218 49.8843 6.76699 49.3965L11.6619 46.5704C12.5067 46.0827 12.7962 45.0024 12.3084 44.1576ZM63.2337 30.7337C64.2092 30.7337 65 31.5245 65 32.5C65 33.4755 64.2092 34.2663 63.2337 34.2663H57.5815C56.606 34.2663 55.8152 33.4755 55.8152 32.5C55.8152 31.5245 56.606 30.7337 57.5815 30.7337H63.2337ZM9.18478 32.5C9.18478 31.5245 8.39398 30.7337 7.41848 30.7337H1.7663C0.790801 30.7337 4.26408e-08 31.5245 0 32.5C-4.26403e-08 33.4755 0.790802 34.2663 1.7663 34.2663H7.41848C8.39398 34.2663 9.18478 33.4755 9.18478 32.5ZM59.9993 46.3372C60.8441 46.8249 61.1336 47.9052 60.6458 48.75C60.1581 49.5948 59.0778 49.8842 58.233 49.3965L53.3381 46.5704C52.4933 46.0827 52.2038 45.0024 52.6916 44.1576C53.1793 43.3128 54.2596 43.0233 55.1044 43.5111L59.9993 46.3372ZM12.3084 20.8424C12.7962 19.9976 12.5067 18.9173 11.6619 18.4296L6.76699 15.6035C5.92218 15.1157 4.84192 15.4052 4.35417 16.25C3.86642 17.0948 4.15587 18.1751 5.00068 18.6628L9.89561 21.4889C10.7404 21.9766 11.8207 21.6872 12.3084 20.8424ZM49.3965 58.233C49.8842 59.0778 49.5948 60.1581 48.75 60.6458C47.9052 61.1336 46.8249 60.8441 46.3372 59.9993L43.5111 55.1044C43.0233 54.2596 43.3128 53.1793 44.1576 52.6916C45.0024 52.2038 46.0827 52.4933 46.5704 53.3381L49.3965 58.233ZM20.8424 12.3084C21.6872 11.8206 21.9766 10.7404 21.4889 9.89558L18.6628 5.00066C18.175 4.15585 17.0948 3.8664 16.25 4.35415C15.4052 4.8419 15.1157 5.92215 15.6035 6.76696L18.4295 11.6619C18.9173 12.5067 19.9976 12.7962 20.8424 12.3084Z" fill="url(#paint2_linear_102_352)"/>
<defs>
<linearGradient id="paint0_linear_102_352" x1="43.6277" y1="15.5435" x2="25.6723" y2="52.437" gradientUnits="userSpaceOnUse">
<stop offset="0.182844" stop-color="#FFE600"/>
<stop offset="0.980542" stop-color="#F09000"/>
</linearGradient>
<linearGradient id="paint1_linear_102_352" x1="22.395" y1="8.1933" x2="50.2521" y2="75.1051" gradientUnits="userSpaceOnUse">
<stop stop-color="#FFE600"/>
<stop offset="1" stop-color="#9C8D00"/>
</linearGradient>
<linearGradient id="paint2_linear_102_352" x1="56.3451" y1="8.47826" x2="8.12496" y2="65" gradientUnits="userSpaceOnUse">
<stop stop-color="#FFE600"/>
<stop offset="1" stop-color="#AA9900"/>
</linearGradient>
</defs>
</svg>
